# xmcd CD database file
#
# Track frame offsets:
#	150
#	19011
#	45442
#	67821
#	84808
#	103453
#	123578
#	142661
#	161282
#	176839
#	198464
#
# Disc length: 2896 seconds
#
# Revision: 0
# Processed by: cddbd v1.5.2PL0 Copyright (c) Steve Scherf et al.
# Submitted via: jetAudio 7
#
DISCID=860b4e0b
DTITLE=Niaz Mohammad Chowdhury (cafegaon) - Jibananda (cafegaon)
DYEAR=1900
DGENRE=Blues (cafegaon)
TTITLE0=Jibanananda (cafegaon)
TTITLE1=Aaj Ei Bristy'r Kanna (cafegaon)
TTITLE2=Prem Jeno Projapoti (cafegaon)
TTITLE3=Cholona Paye Paye (cafegaon)
TTITLE4=Kichhu Loke Kichhu Kotha (cafegaon)
TTITLE5=Hridoy Chire Jodi (cafegaon)
TTITLE6=Tomar Jabar Shomoy (cafegaon)
TTITLE7=Ek Phonta Bish (cafegaon)
TTITLE8=Ek TajMohol Gore (cafegaon)
TTITLE9=Dukkho Amay Pareni (cafegaon)
TTITLE10=Shukh Amar ShukTara (cafegaon)
EXTD=
EXTT0=
EXTT1=
EXTT2=
EXTT3=
EXTT4=
EXTT5=
EXTT6=
EXTT7=
EXTT8=
EXTT9=
EXTT10=
PLAYORDER=
